<?xml version="1.0" encoding="UTF-8"?>
<svg preserveAspectRatio="xMidYMid slice" width="1600px" height="355px" xmlns="http://www.w3.org/2000/svg" id="Layer_1" viewBox="0 0 1600 355.95">
  <defs>
    <style>.cls-1{fill:#003c57;}.cls-2{fill:#f4f4f4;}.cls-3{fill:#a8bd3a;}</style>
  </defs>
  <rect class="cls-2" width="" height=""></rect>
  <g>
    <path class="cls-1" d="M304.03,218.95c-20.06,0-29.03-16.61-29.03-37.04s8.97-37.04,29.03-37.04,28.88,16.76,28.88,37.04-8.82,37.04-28.88,37.04m0-68.28c-14.7,0-20.06,16.17-20.06,31.02s4.78,30.72,20.06,30.72,19.92-16.17,19.92-30.72-5.14-31.02-19.92-31.02"></path>
    <path class="cls-1" d="M357.91,166.62v50.93h-8.01v-50.93h-8.38v-5h8.38v-8.08c0-10.22,6.03-17.57,17.86-17.57,.88,0,1.91,.07,1.91,.07v5.14h-.96c-5.59,0-10.66,3.67-10.66,11.32v9.04h11.61v5l-11.76,.07Z"></path>
    <path class="cls-1" d="M391.35,166.62v50.93h-8.01v-50.93h-8.38v-5h8.38v-8.08c0-10.22,6.03-17.57,17.86-17.57,.88,0,1.91,.07,1.91,.07v5.14h-.96c-5.59,0-10.66,3.67-10.66,11.32v9.04h11.61v5l-11.76,.07Z"></path>
    <path class="cls-1" d="M416.41,150.89c-2.79,.07-5.07-2.13-5.14-4.92v-.07h0c0-2.87,2.28-5.14,5.14-5.14s5.14,2.28,5.14,5.14h0c0,2.79-2.28,5-5,5h0m-4.26,10.73h8.16v56h-8.23l.07-56Z"></path>
    <path class="cls-1" d="M455.44,218.95c-13.23,0-23.52-11.39-23.52-29.33s10.22-29.33,23.74-29.33c6.76,0,11.24,1.84,13.67,3.82l-2.13,4.92c-2.87-1.98-6.25-3.01-9.7-3.01-11.39,0-17.2,9.85-17.2,23.08s6.69,23.45,16.9,23.45c3.53,.07,7.06-.96,10-2.94l2.13,5.37c-2.35,1.98-7.13,3.82-13.89,3.82"></path>
    <path class="cls-1" d="M482.63,193c1.03,13.16,8.38,19.84,19.62,19.84,5.29,.07,10.51-1.03,15.21-3.38l2.35,5.73c-5.66,2.72-11.91,4.04-18.15,3.82-15.73,0-26.9-9.33-26.9-29.47s10.29-29.18,24.33-29.18,22.78,8.67,22.78,27.41l-39.25,5.22Zm16.24-27.41c-9.04,0-16.76,7.06-16.61,22.71l31.75-4.34c0-13.01-6.25-18.37-15.14-18.37"></path>
    <path class="cls-1" d="M561.42,166.62v50.93h-8.16v-50.93h-8.38v-5h8.38v-8.08c0-10.22,6.03-17.57,17.86-17.57,.88,0,1.91,.07,1.91,.07v5.14h-.88c-5.59,0-10.66,3.67-10.66,11.32v9.04h11.61v5l-11.69,.07Z"></path>
    <path class="cls-1" d="M602.8,218.95c-16.46,0-24.03-12.79-24.03-29.33s7.57-29.33,24.03-29.33,23.96,12.86,23.96,29.33-7.42,29.33-23.96,29.33m0-53.14c-12.2,0-15.73,12.35-15.73,23.89s3.82,23.3,15.73,23.3,15.73-11.83,15.73-23.37-3.53-23.81-15.73-23.81"></path>
    <path class="cls-1" d="M662.04,166.91c-5.14-1.4-12.71-1.18-16.24,1.03v49.68h-8.16v-53.43c5.88-2.5,11.83-3.82,22.34-3.82h4.19l-2.13,6.54Z"></path>
    <path class="cls-1" d="M735.61,218.14l-31.68-48.88c-1.54-2.35-2.94-4.78-4.19-7.28h-.22s.29,4.19,.29,8.53v47.63h-10.51v-71.37h11.76l30.35,45.94c1.54,2.35,2.94,4.85,4.19,7.42h0s-.37-4.04-.37-8.38v-44.98h10.51v71.37h-10.14Z"></path>
    <path class="cls-1" d="M780,219.53c-16.39,0-24.11-6.54-24.11-17.2,0-14.99,15.73-19.11,34.4-20.73v-3.23c0-7.64-5.22-9.92-12.86-9.92-5.22,.07-10.36,1.18-15.14,3.23l-2.79-6.84c6.39-2.65,13.23-4.04,20.14-4.04,12.35,0,21.9,5.07,21.9,19.4v35.35c-6.76,2.87-14.11,4.26-21.53,3.97m10.29-32.34c-13.82,1.47-23.08,4.04-23.08,14.85,0,7.57,5.37,10.8,13.74,10.8,3.23,.07,6.39-.59,9.33-1.84v-23.81Z"></path>
    <path class="cls-1" d="M834.09,219.24c-11.76,0-16.24-7.57-16.24-15.14v-34.69h-7.79v-7.28h7.79v-12.57l11.91-3.31v15.88h10.88v7.28h-11.02v34.18c-.29,3.97,2.65,7.42,6.61,7.79h1.03c1.1,0,2.2-.22,3.23-.51v7.35c-2.13,.81-4.34,1.18-6.61,1.1"></path>
    <path class="cls-1" d="M855.92,152.51c-3.45-.37-5.95-3.45-5.59-6.91,.37-3.45,3.45-5.95,6.91-5.59,3.16,.37,5.59,3.01,5.59,6.25-.15,3.67-3.23,6.47-6.91,6.25m-5.95,9.7h12.05v55.93h-12.05v-55.93Z"></path>
    <path class="cls-1" d="M897.81,219.53c-17.05,0-25.58-12.57-25.58-29.33s8.38-29.47,25.58-29.47,25.5,12.79,25.5,29.47-8.38,29.33-25.5,29.33m0-51.08c-10.29,0-13.38,10.8-13.38,21.68s3.23,21.24,13.38,21.24,13.38-10.51,13.38-21.24-3.09-21.68-13.38-21.68"></path>
    <path class="cls-1" d="M967.71,218.14v-39.98c0-7.13-6.1-9.85-13.01-9.85-3.31-.07-6.54,.51-9.63,1.69v48.21h-11.91v-53.36c7.06-2.79,14.63-4.12,22.2-4.04,14.7,0,24.33,5,24.33,17.2v40.13h-11.98Z"></path>
    <path class="cls-1" d="M1013.28,219.53c-16.39,0-24.18-6.54-24.18-17.2,0-14.99,15.73-19.11,34.47-20.73v-3.23c0-7.64-5.22-9.92-12.86-9.92-5.22,.07-10.36,1.18-15.14,3.23l-2.79-6.84c6.39-2.65,13.23-4.04,20.14-4.04,12.35,0,21.9,5.07,21.9,19.4v35.35c-6.76,2.87-14.11,4.26-21.53,3.97m10.29-32.34c-13.82,1.47-23.08,4.04-23.08,14.85,0,7.57,5.37,10.8,13.74,10.8,3.23,.07,6.39-.59,9.33-1.91v-23.74Z"></path>
    <polygon class="cls-1" points="1047.16 218.14 1047.16 191.16 1047.16 136.7 1059.14 136.7 1059.14 164.26 1059.14 218.14 1047.16 218.14"></polygon>
    <path class="cls-1" d="M1106.47,219.53c-6.69,.22-13.38-1.18-19.48-4.04l3.31-8.75c4.26,2.2,8.97,3.38,13.74,3.38,8.38,0,14.26-4.85,14.26-11.91,0-15.65-29.69-9.63-29.69-31.82,0-11.32,9.19-21.17,23.67-21.17,5.95-.15,11.91,1.25,17.12,4.04l-2.94,7.86c-3.82-2.13-8.16-3.31-12.57-3.31-7.72,0-12.79,4.7-12.79,11.32,0,15.36,30.35,8.75,30.35,32.34,0,12.57-10.51,22.12-24.99,22.12"></path>
    <path class="cls-1" d="M1161.74,219.24c-11.76,0-16.24-7.57-16.24-15.14v-34.69h-7.79v-7.28h7.79v-12.57l11.91-3.31v15.88h10.88v7.28h-10.88v34.18c-.37,3.97,2.57,7.42,6.54,7.79h1.1c1.1,0,2.2-.22,3.23-.51v7.35c-2.06,.81-4.26,1.18-6.54,1.03"></path>
    <path class="cls-1" d="M1199,219.53c-16.39,0-24.18-6.54-24.18-17.2,0-14.99,15.73-19.11,34.47-20.73v-3.23c0-7.64-5.29-9.92-12.86-9.92-5.22,.07-10.36,1.18-15.14,3.23l-2.79-6.84c6.39-2.65,13.23-4.04,20.14-4.04,12.42,0,21.98,5.07,21.98,19.4v35.35c-6.84,2.87-14.19,4.26-21.61,3.97m10.29-32.34c-13.82,1.47-23.08,4.04-23.08,14.85,0,7.57,5.37,10.8,13.74,10.8,3.23,.07,6.39-.59,9.33-1.84v-23.81Z"></path>
    <path class="cls-1" d="M1253.1,219.24c-11.76,0-16.24-7.57-16.24-15.14v-34.69h-7.79v-7.28h7.79v-12.57l11.91-3.31v15.88h10.88v7.28h-10.88v34.18c-.29,3.97,2.65,7.42,6.61,7.79h1.03c1.1,0,2.2-.22,3.23-.51v7.35c-2.06,.81-4.26,1.18-6.54,1.03"></path>
    <path class="cls-1" d="M1274.92,152.51c-3.45-.37-5.95-3.45-5.59-6.91,.37-3.45,3.45-5.95,6.91-5.59,3.16,.37,5.59,3.01,5.59,6.17-.07,3.75-3.23,6.54-6.91,6.32m-5.95,9.7h12.05v55.93h-12.05v-55.93Z"></path>
    <path class="cls-1" d="M1307.04,219.53c-5.88,.07-11.69-1.32-16.9-4.04l3.16-7.64c3.67,2.2,7.94,3.38,12.2,3.31,6.1,0,10.95-3.97,10.95-8.75,0-13.3-24.55-7.06-24.55-25.28,0-8.38,7.42-16.39,19.55-16.39,5.51-.15,10.95,1.25,15.73,4.04l-3.16,6.91c-3.01-2.06-6.54-3.16-10.22-3.23-6.32,0-10,3.75-10,8.01,0,12.49,24.99,6.98,24.99,25.65,0,8.97-8.38,17.42-21.76,17.42"></path>
    <path class="cls-1" d="M1359.23,219.24c-11.76,0-16.24-7.57-16.24-15.14v-34.69h-7.79v-7.28h7.72v-12.57l11.91-3.31v15.88h10.88v7.28h-10.88v34.18c-.29,3.97,2.65,7.42,6.61,7.79h1.03c1.1,0,2.2-.22,3.23-.51v7.35c-2.06,.81-4.26,1.18-6.47,1.03"></path>
    <path class="cls-1" d="M1381.2,152.51c-3.45-.37-5.95-3.45-5.59-6.91,.37-3.45,3.45-5.95,6.91-5.59,3.16,.37,5.59,3.01,5.59,6.17-.15,3.75-3.31,6.54-6.91,6.32m-6.03,9.7h12.05v55.93h-12.05v-55.93Z"></path>
    <path class="cls-1" d="M1421.7,219.53c-13.74,0-24.25-11.24-24.25-29.47s10.8-29.33,24.33-29.33c5.07-.29,10.14,1.18,14.33,4.04l-2.65,6.76c-2.57-1.76-5.66-2.65-8.82-2.5-9.78,0-14.77,8.38-14.77,20.95s5.81,21.17,14.7,21.17c3.16,0,6.25-.96,8.75-2.79l2.94,7.35c-2.5,2.13-7.35,4.04-14.48,4.04"></path>
    <path class="cls-1" d="M1459.25,219.53c-5.88,.07-11.69-1.32-16.9-4.04l3.16-7.64c3.67,2.2,7.94,3.38,12.2,3.31,6.1,0,10.95-3.97,10.95-8.75,0-13.3-24.55-7.06-24.55-25.28,0-8.38,7.42-16.39,19.55-16.39,5.51-.15,10.95,1.25,15.73,4.04l-3.16,6.91c-3.01-2.06-6.54-3.16-10.22-3.23-6.32,0-10.07,3.75-10.07,8.01-.07,12.49,25.14,6.98,25.14,25.65,0,8.89-8.45,17.42-21.83,17.42"></path>
    <path class="cls-3" d="M119.41,188.22c1.84-3.67,3.16-6.69,5.22-10.14-2.2-4.7-3.9-9.55-5.22-14.55v24.69m11.02-69.53s-11.1,0-11.1,13.74v2.2c1.4,12.64,4.56,25.06,9.33,36.82,5.66-9.04,12.71-17.05,20.95-23.74,17.86-15.43,39.03-24.4,71.88-29.03h-91.06Z"></path>
    <path class="cls-1" d="M237.59,126.19c-37.56,3.6-63.21,14.33-81.58,29.99-9.04,7.42-16.68,16.46-22.34,26.68,14.41,28,43.73,51.52,89.52,54.46h.96s14.11,.51,14.11-15.21V126.12c-.22,.07-.37,.07-.66,.07m-96.57,79.74c-4.26-5.07-8.01-10.51-11.17-16.32-4.12,7.86-7.57,16.1-10.51,24.47v23.15l69.16,.15c-21.9-6.61-35.06-16.76-47.48-31.46"></path>
  </g>
</svg>
